<?xml version="1.0" encoding="utf-8"?>
<!-- Generator: Adobe Illustrator 22.0.0, SVG Export Plug-In . SVG Version: 6.00 Build 0)  -->
<svg version="1.1" id="Layer_1" xmlns="http://www.w3.org/2000/svg" xmlns:xlink="http://www.w3.org/1999/xlink" x="0px" y="0px"
	 viewBox="0 0 128 128" style="enable-background:new 0 0 128 128;" xml:space="preserve">
<style type="text/css">
	.st0{fill:#3A2C60;}
	.st1{fill:#E6E7E8;}
	.st2{fill:#0089EF;}
	.st3{fill:#6DC9F7;}
	.st4{fill:#D4FBFF;}
	.st5{fill:#FA759E;}
	.st6{fill:#FFD7E5;}
	.st7{fill:#FFFFFF;}
</style>
<g>
	<path class="st1" d="M115.77,29.505H75v-6.781c0-1.654-1.346-3-3-3H60c-1.654,0-3,1.346-3,3v6.781H16.229c-3.86,0-7,3.14-7,7
		v68.771c0,3.86,3.14,7,7,7h99.541c3.86,0,7-3.14,7-7V36.505C122.77,32.645,119.63,29.505,115.77,29.505z"/>
	<g>
		<g>
			<path class="st4" d="M6.23,101.276c0,3.314,2.686,6,6,6h99.541c3.314,0,6-2.686,6-6v-56H6.23V101.276z"/>
		</g>
		<path class="st7" d="M111.77,104.276H12.23c-3.314,0-6-2.686-6-6v3c0,3.314,2.686,6,6,6h99.541c3.314,0,6-2.686,6-6v-3
			C117.77,101.59,115.084,104.276,111.77,104.276z"/>
		<path class="st3" d="M111.77,26.505H70v5.219c0,0.63-0.296,1.222-0.8,1.6l-6,4.5c-0.711,0.533-1.689,0.533-2.4,0l-6-4.5
			c-0.504-0.378-0.8-0.97-0.8-1.6v-5.219H12.23c-3.314,0-6,2.686-6,6v12.771H117.77V32.505
			C117.77,29.191,115.084,26.505,111.77,26.505z"/>
		<path class="st2" d="M69.2,33.324l-6,4.5c-0.711,0.533-1.689,0.533-2.4,0l-6-4.5c-0.504-0.378-0.8-0.97-0.8-1.6v-13
			c0-1.105,0.895-2,2-2h12c1.105,0,2,0.895,2,2v13C70,32.353,69.704,32.946,69.2,33.324z"/>
		<g>
			<g>
				<path class="st5" d="M45.136,73.377c-2.153,2.405-5.271,3.927-8.753,3.927s-6.6-1.522-8.753-3.927
					c-4.446,0.903-7.792,4.834-7.792,9.546v13.078c0,0.442,0.358,0.801,0.801,0.801h31.488c0.442,0,0.801-0.358,0.801-0.801V82.923
					C52.928,78.211,49.582,74.28,45.136,73.377z"/>
				<circle class="st7" cx="36.383" cy="65.548" r="11.756"/>
			</g>
			<g>
				<path class="st0" d="M111.77,25.505H71v-6.781c0-1.654-1.346-3-3-3H56c-1.654,0-3,1.346-3,3v6.781H12.23c-3.86,0-7,3.14-7,7
					v27.136c0,0.552,0.448,1,1,1s1-0.448,1-1V46.276H116.77v55c0,2.757-2.243,5-5,5H12.23c-2.757,0-5-2.243-5-5v-21.98
					c0-0.552-0.448-1-1-1s-1,0.448-1,1v21.98c0,3.86,3.14,7,7,7h99.541c3.86,0,7-3.14,7-7V32.505
					C118.77,28.645,115.63,25.505,111.77,25.505z M55,18.724c0-0.551,0.449-1,1-1h12c0.551,0,1,0.449,1,1v13
					c0,0.313-0.149,0.612-0.4,0.8c0,0,0,0,0,0l-6,4.5c-0.352,0.265-0.846,0.265-1.2,0l-6-4.5c-0.25-0.188-0.4-0.486-0.4-0.8V18.724z
					 M7.23,44.276V32.505c0-2.757,2.243-5,5-5H53v4.219c0,0.939,0.449,1.837,1.2,2.4l6,4.5c0.53,0.397,1.165,0.596,1.8,0.596
					c0.635,0,1.27-0.199,1.8-0.596l6-4.5c0.751-0.563,1.2-1.46,1.2-2.4v-4.219h40.77c2.757,0,5,2.243,5,5v11.771H7.23z"/>
				<path class="st0" d="M6.23,75.891c0.552,0,1-0.448,1-1v-10.75c0-0.552-0.448-1-1-1s-1,0.448-1,1v10.75
					C5.23,75.443,5.677,75.891,6.23,75.891z"/>
				<path class="st0" d="M58.167,23.391h7.667c0.552,0,1-0.448,1-1s-0.448-1-1-1h-7.667c-0.552,0-1,0.448-1,1
					S57.614,23.391,58.167,23.391z"/>
				<path class="st0" d="M18.838,82.923v13.078c0,0.993,0.808,1.801,1.801,1.801h31.488c0.993,0,1.801-0.808,1.801-1.801V82.923
					c0-4.64-2.964-8.586-7.093-10.084c1.448-2.069,2.304-4.58,2.304-7.291c0-7.034-5.723-12.756-12.756-12.756
					s-12.756,5.723-12.756,12.756c0,2.711,0.857,5.222,2.304,7.291C21.802,74.337,18.838,78.283,18.838,82.923z M36.383,54.792
					c5.931,0,10.756,4.825,10.756,10.756s-4.825,10.756-10.756,10.756s-10.756-4.825-10.756-10.756S30.452,54.792,36.383,54.792z
					 M27.308,74.498c2.315,2.347,5.527,3.806,9.076,3.806s6.761-1.459,9.076-3.806c3.719,1.004,6.469,4.393,6.469,8.425v12.879
					h-31.09V82.923C20.838,78.89,23.588,75.502,27.308,74.498z"/>
				<path class="st0" d="M66.161,61.296h38c0.552,0,1-0.448,1-1s-0.448-1-1-1h-38c-0.552,0-1,0.448-1,1S65.609,61.296,66.161,61.296
					z"/>
				<path class="st0" d="M66.161,71.296h38c0.552,0,1-0.448,1-1s-0.448-1-1-1h-38c-0.552,0-1,0.448-1,1S65.609,71.296,66.161,71.296
					z"/>
				<path class="st0" d="M66.161,81.296h38c0.552,0,1-0.448,1-1s-0.448-1-1-1h-38c-0.552,0-1,0.448-1,1S65.609,81.296,66.161,81.296
					z"/>
				<path class="st0" d="M66.161,91.296h38c0.552,0,1-0.448,1-1s-0.448-1-1-1h-38c-0.552,0-1,0.448-1,1S65.609,91.296,66.161,91.296
					z"/>
			</g>
		</g>
	</g>
</g>
</svg>
