<?xml version="1.0" encoding="utf-8"?>
<!-- Generator: Adobe Illustrator 24.0.0, SVG Export Plug-In . SVG Version: 6.00 Build 0)  -->
<svg version="1.1" id="Layer_1" xmlns="http://www.w3.org/2000/svg" xmlns:xlink="http://www.w3.org/1999/xlink" x="0px" y="0px"
	 viewBox="0 0 128 128" enable-background="new 0 0 128 128" xml:space="preserve">
<g>
	<g>
		<path fill="#E6E7E8" d="M110.582,89.4c-6.419,0-12.369,3.627-15.333,9.294H68.284c3.155-4.883,4.996-10.692,4.996-16.925V62.697
			c0-2.757-2.243-5-5-5H29.933V35.142c0-6.053,4.151-11.18,9.871-12.19c3.574-0.633,7.197,0.324,9.939,2.624
			c2.748,2.305,4.324,5.675,4.324,9.248v8.873c0,1.654,1.346,3,3,3h3.355c1.654,0,3-1.346,3-3v-8.873
			c0-5.992-2.544-11.755-6.98-15.811c-4.494-4.108-10.319-6.073-16.408-5.524c-10.91,0.979-19.456,10.57-19.456,21.835v22.374H15.72
			c-2.757,0-5,2.243-5,5v19.072c0,17.248,14.032,31.28,31.28,31.28c3.09,0,6.073-0.457,8.894-1.296l2.303,2.602
			c0.189,0.215,0.462,0.337,0.749,0.337h3.193c0.235,0,0.462-0.083,0.643-0.234l4.018-3.371l4.018,3.371
			c0.371,0.312,0.914,0.312,1.285,0l4.018-3.371l4.018,3.371c0.371,0.312,0.914,0.312,1.285,0l4.018-3.371l4.018,3.371
			c0.18,0.151,0.408,0.234,0.643,0.234h10.147c2.964,5.667,8.914,9.294,15.333,9.294c9.535,0,17.293-7.758,17.293-17.293
			S120.117,89.4,110.582,89.4z M118.188,106.693c0,2.295-1.868,4.163-4.163,4.163s-4.163-1.868-4.163-4.163s1.868-4.163,4.163-4.163
			S118.188,104.397,118.188,106.693z"/>
		<circle fill="#E6E7E8" cx="88.875" cy="36.926" r="19.5"/>
	</g>
	<g>
		<g>
			<g>
				<path fill="#D4FBFF" d="M36.124,10.485c-10.603,0.951-18.545,10.194-18.545,20.839l0,23.373h7.355l0-23.555
					c0-6.369,4.425-12.067,10.697-13.176c8.245-1.457,15.437,4.875,15.437,12.857v8.873c0,1.105,0.895,2,2,2h3.355
					c1.105,0,2-0.895,2-2v-8.873C58.422,18.942,48.226,9.399,36.124,10.485z"/>
			</g>
			<path fill="#FA759E" d="M38,108.048L38,108.048c-16.723,0-30.28-13.557-30.28-30.28V58.697c0-2.209,1.791-4,4-4h52.56
				c2.209,0,4,1.791,4,4v19.071C68.28,94.491,54.723,108.048,38,108.048z"/>
			<path fill="#FFFFFF" d="M64.28,54.697H11.72c-2.209,0-4,1.791-4,4v3c0-2.209,1.791-4,4-4h52.56c2.209,0,4,1.791,4,4v-3
				C68.28,56.488,66.489,54.697,64.28,54.697z"/>
			<g>
				<path fill="#FFD7E5" d="M18.68,73.01H7.72v-7.226h10.96c1.996,0,3.613,1.618,3.613,3.613v0
					C22.293,71.393,20.676,73.01,18.68,73.01z"/>
				<path fill="#FFD7E5" d="M18.68,79.745H7.792c0.162,2.504,0.624,4.925,1.357,7.226h9.531c1.995,0,3.613-1.618,3.613-3.613
					S20.676,79.745,18.68,79.745z"/>
				<path fill="#FFD7E5" d="M57.32,73.01h10.96v-7.226H57.32c-1.996,0-3.613,1.618-3.613,3.613v0
					C53.707,71.393,55.324,73.01,57.32,73.01z"/>
				<path fill="#FFD7E5" d="M68.208,79.745H57.32c-1.996,0-3.613,1.618-3.613,3.613s1.618,3.613,3.613,3.613h9.531
					C67.585,84.67,68.047,82.249,68.208,79.745z"/>
			</g>
			<path fill="#6DC9F7" d="M44.233,72.279c0-3.442-2.79-6.233-6.233-6.233s-6.233,2.79-6.233,6.233c0,2.474,1.446,4.606,3.535,5.612
				v7.411C35.302,86.792,36.51,88,38,88s2.698-1.208,2.698-2.698v-7.411C42.787,76.885,44.233,74.753,44.233,72.279z"/>
		</g>
		<path fill="#6DC9F7" d="M106.582,86.4c-6.493,0-12.097,3.799-14.715,9.294H49.946l-6.196,6.999l6.196,6.999h3.193l4.66-3.91
			l4.66,3.91h0.001l4.66-3.91l4.66,3.91h0.001l4.66-3.91l4.66,3.91h10.766c2.618,5.495,8.223,9.294,14.715,9.294
			c8.998,0,16.293-7.294,16.293-16.293S115.58,86.4,106.582,86.4z M110.024,107.856c-2.852,0-5.163-2.312-5.163-5.163
			c0-2.852,2.312-5.163,5.163-5.163c2.852,0,5.163,2.312,5.163,5.163C115.188,105.544,112.876,107.856,110.024,107.856z"/>
		<g>
			<circle fill="#0089EF" cx="84.875" cy="32.926" r="18.5"/>
			<g>
				<path fill="#FFFFFF" d="M82.331,43.681c-0.722,0-1.417-0.286-1.931-0.8l-7.201-7.2c-1.067-1.067-1.067-2.796,0-3.863
					c1.065-1.067,2.795-1.066,3.862,0l4.964,4.963l8.974-12.081c0.9-1.211,2.61-1.462,3.821-0.564
					c1.211,0.899,1.463,2.61,0.564,3.821l-10.86,14.621c-0.473,0.637-1.2,1.037-1.992,1.095
					C82.465,43.679,82.398,43.681,82.331,43.681z"/>
				<g>
					<path fill="#3A2C60" d="M17.578,45.667c0.552,0,1-0.448,1-1v-5.833c0-0.552-0.448-1-1-1s-1,0.448-1,1v5.833
						C16.578,45.219,17.026,45.667,17.578,45.667z"/>
					<path fill="#3A2C60" d="M45.232,72.279c0-3.988-3.245-7.232-7.232-7.232c-3.988,0-7.233,3.245-7.233,7.232
						c0,2.542,1.369,4.914,3.535,6.208v6.815C34.302,87.341,35.961,89,38,89s3.698-1.659,3.698-3.697v-6.815
						C43.864,77.192,45.232,74.821,45.232,72.279z M40.264,76.99c-0.346,0.167-0.566,0.517-0.566,0.901v7.412
						C39.698,86.239,38.936,87,38,87s-1.698-0.761-1.698-1.697v-7.412c0-0.384-0.22-0.734-0.566-0.901
						c-1.832-0.882-2.969-2.688-2.969-4.711c0-2.885,2.348-5.232,5.233-5.232s5.232,2.347,5.232,5.232
						C43.232,74.303,42.095,76.108,40.264,76.99z"/>
					<path fill="#3A2C60" d="M110.024,96.53c-3.398,0-6.163,2.765-6.163,6.163s2.765,6.163,6.163,6.163s6.163-2.765,6.163-6.163
						S113.423,96.53,110.024,96.53z M110.024,106.856c-2.295,0-4.163-1.868-4.163-4.163s1.868-4.163,4.163-4.163
						s4.163,1.868,4.163,4.163S112.32,106.856,110.024,106.856z"/>
					<path fill="#3A2C60" d="M106.582,85.4c-6.419,0-12.369,3.627-15.333,9.294H64.259c3.161-4.885,5.021-10.686,5.021-16.925
						V58.697c0-2.757-2.243-5-5-5H25.933V31.142c0-6.053,4.151-11.18,9.871-12.19c3.574-0.633,7.197,0.324,9.939,2.624
						c2.748,2.305,4.324,5.675,4.324,9.248v8.873c0,1.654,1.346,3,3,3h3.355c1.654,0,3-1.346,3-3v-8.873
						c0-5.992-2.544-11.755-6.98-15.811c-4.494-4.108-10.319-6.07-16.408-5.524c-10.91,0.979-19.456,10.57-19.456,21.835v3.26
						c0,0.552,0.448,1,1,1s1-0.448,1-1v-3.26c0-10.239,7.746-18.955,17.635-19.843c5.525-0.498,10.806,1.284,14.88,5.008
						c4.022,3.678,6.33,8.902,6.33,14.334v8.873c0,0.551-0.449,1-1,1h-3.355c-0.551,0-1-0.449-1-1v-8.873
						c0-4.166-1.836-8.095-5.039-10.78c-3.196-2.681-7.411-3.794-11.572-3.062c-6.677,1.18-11.523,7.135-11.523,14.16v22.555h-5.355
						v-5.363c0-0.552-0.448-1-1-1s-1,0.448-1,1v5.364H11.72c-2.757,0-5,2.243-5,5v19.072c0,17.248,14.032,31.28,31.28,31.28
						c3.086,0,6.057-0.479,8.875-1.317l2.322,2.623c0.189,0.215,0.462,0.337,0.749,0.337h3.193c0.235,0,0.462-0.083,0.643-0.234
						l4.018-3.371l4.018,3.371c0.371,0.312,0.914,0.312,1.285,0l4.018-3.371l4.018,3.371c0.371,0.312,0.914,0.312,1.285,0
						l4.018-3.371l4.018,3.371c0.18,0.151,0.408,0.234,0.643,0.234h10.147c2.964,5.667,8.914,9.294,15.333,9.294
						c9.535,0,17.293-7.758,17.293-17.293S116.117,85.4,106.582,85.4z M38,107.048c-16.145,0-29.28-13.135-29.28-29.28V58.697
						c0-1.654,1.346-3,3-3h52.56c1.654,0,3,1.346,3,3v19.071c0,6.309-2.03,12.14-5.438,16.925H49.946
						c-0.286,0-0.559,0.123-0.749,0.337l-6.196,6.999c-0.335,0.378-0.335,0.947,0,1.325l2.407,2.719
						C43.039,106.697,40.562,107.048,38,107.048z M106.582,117.986c-5.865,0-11.287-3.424-13.813-8.724
						c-0.166-0.348-0.517-0.57-0.903-0.57H81.465l-4.381-3.676c-0.371-0.312-0.914-0.312-1.285,0l-4.018,3.371l-4.018-3.371
						c-0.371-0.312-0.914-0.312-1.285,0l-4.018,3.371l-4.018-3.371c-0.371-0.312-0.914-0.312-1.285,0l-4.381,3.676h-2.379
						l-5.311-5.999l5.311-5.999h41.471c0.386,0,0.737-0.222,0.903-0.57c2.525-5.3,7.947-8.724,13.813-8.724
						c8.433,0,15.293,6.86,15.293,15.293S115.015,117.986,106.582,117.986z"/>
					<path fill="#3A2C60" d="M84.875,52.426c10.752,0,19.5-8.748,19.5-19.5s-8.748-19.5-19.5-19.5s-19.5,8.748-19.5,19.5
						S74.123,52.426,84.875,52.426z M84.875,15.426c9.649,0,17.5,7.851,17.5,17.5s-7.851,17.5-17.5,17.5s-17.5-7.851-17.5-17.5
						S75.226,15.426,84.875,15.426z"/>
					<path fill="#3A2C60" d="M82.331,44.682c0.094,0,0.187-0.003,0.273-0.01c1.083-0.079,2.075-0.624,2.723-1.496l10.86-14.62
						c0.595-0.8,0.842-1.784,0.696-2.771s-0.667-1.856-1.467-2.451c-1.652-1.226-3.993-0.88-5.22,0.771l-8.283,11.15l-4.145-4.144
						c-1.409-1.408-3.87-1.408-5.276,0.001c-0.705,0.705-1.093,1.642-1.093,2.638s0.388,1.934,1.093,2.639l7.201,7.201
						C80.398,44.293,81.335,44.682,82.331,44.682z M73.399,33.75c0-0.462,0.18-0.897,0.508-1.225
						c0.326-0.327,0.76-0.506,1.223-0.506c0.463,0,0.898,0.18,1.225,0.506l4.964,4.963c0.205,0.206,0.49,0.311,0.78,0.29
						s0.556-0.167,0.729-0.401l8.974-12.081c0.568-0.765,1.655-0.926,2.423-0.356c0.371,0.275,0.613,0.679,0.68,1.136
						s-0.047,0.914-0.323,1.286l-10.86,14.62c-0.3,0.405-0.761,0.658-1.27,0.695l-0.12,0.004c-0.462,0-0.897-0.18-1.224-0.507
						l-7.201-7.2C73.579,34.647,73.399,34.212,73.399,33.75z"/>
				</g>
			</g>
		</g>
	</g>
</g>
</svg>
